<svg width="54" height="52" viewBox="0 0 54 52" fill="none" xmlns="http://www.w3.org/2000/svg">
<path d="M26.8239 0.906519C12.317 0.906519 0.555115 12.5921 0.555115 27.0049C0.555115 38.5371 8.08113 48.3175 18.5197 51.769C19.8331 52.0104 20.3158 51.2013 20.3158 50.513C20.3158 49.8899 20.2896 47.8347 20.2797 45.6554C12.9704 47.2344 11.4304 42.5758 11.4304 42.5758C10.2352 39.5582 8.51456 38.7557 8.51456 38.7557C6.13067 37.1343 8.69516 37.1702 8.69516 37.1702C11.3319 37.3529 12.7209 39.8583 12.7209 39.8583C15.0653 43.8481 18.8678 42.6933 20.3651 42.0278C20.6015 40.3412 21.2812 39.1896 22.0331 38.5371C16.1982 37.8781 10.0644 35.6402 10.0644 25.638C10.0644 22.79 11.0922 20.4607 12.7701 18.6338C12.4976 17.9749 11.5979 15.3226 13.0229 11.7276C13.0229 11.7276 15.2295 11.0262 20.2502 14.4026C22.3451 13.8252 24.5911 13.5349 26.8239 13.5251C29.0568 13.5349 31.306 13.8252 33.4043 14.4026C38.4183 11.0262 40.6216 11.7276 40.6216 11.7276C42.05 15.3226 41.1536 17.9781 40.881 18.6338C42.5655 20.4607 43.5834 22.79 43.5834 25.638C43.5834 35.663 37.4365 37.8683 31.5884 38.5143C32.5308 39.3233 33.3714 40.9121 33.3714 43.3457C33.3714 46.8364 33.3419 49.6485 33.3419 50.5065C33.3419 51.2013 33.8147 52.0137 35.1479 51.7592C45.5799 48.3044 53.096 38.5241 53.096 26.9984C53.096 12.5855 41.3342 0.899994 26.8272 0.899994L26.8239 0.906519Z" fill="black"/>
</svg>
