<svg width="53" height="53" viewBox="0 0 53 53" fill="none" xmlns="http://www.w3.org/2000/svg">
<path d="M47.7976 0H5.10808C2.39894 0 0.182373 2.20219 0.182373 4.89375V47.3063C0.182373 49.9978 2.39894 52.2 5.10808 52.2H47.7976C50.5067 52.2 52.7233 49.9978 52.7233 47.3063V4.89375C52.7233 2.20219 50.5067 0 47.7976 0ZM19.8852 42.4125H13.3176V19.575H19.8852V42.4125ZM16.6014 16.3125C14.7855 16.3125 13.3176 14.8542 13.3176 13.05C13.3176 11.2458 14.7855 9.7875 16.6014 9.7875C18.4173 9.7875 19.8852 11.2458 19.8852 13.05C19.8852 14.8542 18.4173 16.3125 16.6014 16.3125ZM42.8719 42.4125H36.3042V29.3625C36.3042 27.5583 34.8364 26.1 33.0204 26.1C31.2045 26.1 29.7366 27.5583 29.7366 29.3625V42.4125H23.169V19.575H29.7366V23.6238C31.0896 21.7772 33.1649 19.575 35.4833 19.575C39.5683 19.575 42.8719 23.2257 42.8719 27.7313V42.4125Z" fill="black"/>
</svg>
