<svg width="54" height="54" viewBox="0 0 54 54" fill="none" xmlns="http://www.w3.org/2000/svg">
<path d="M48.2218 0.899994H5.53228C2.82314 0.899994 0.606567 3.10218 0.606567 5.79374V48.2062C0.606567 50.8978 2.82314 53.1 5.53228 53.1H48.2218C50.9309 53.1 53.1475 50.8978 53.1475 48.2062V5.79374C53.1475 3.10218 50.9309 0.899994 48.2218 0.899994ZM36.7284 9.05624C36.7284 8.15906 37.4673 7.42499 38.3703 7.42499H44.9379C45.841 7.42499 46.5799 8.15906 46.5799 9.05624V15.5812C46.5799 16.4784 45.841 17.2125 44.9379 17.2125H38.3703C37.4673 17.2125 36.7284 16.4784 36.7284 15.5812V9.05624ZM26.877 17.2125C32.315 17.2125 36.7284 21.5973 36.7284 27C36.7284 32.4027 32.315 36.7875 26.877 36.7875C21.439 36.7875 17.0256 32.4027 17.0256 27C17.0256 21.5973 21.439 17.2125 26.877 17.2125ZM46.5799 44.9437C46.5799 45.8409 45.841 46.575 44.9379 46.575H8.81608C7.91304 46.575 7.17418 45.8409 7.17418 44.9437V23.7375H10.7864C10.5696 24.788 10.458 25.8777 10.458 27C10.458 36.011 17.8039 43.3125 26.877 43.3125C35.9502 43.3125 43.296 36.011 43.296 27C43.296 25.8777 43.1844 24.788 42.9677 23.7375H46.5799V44.9437Z" fill="black"/>
</svg>
