<svg width="228" height="55" viewBox="0 0 228 55" fill="none" xmlns="http://www.w3.org/2000/svg">
<path d="M42.2617 44.096C39.3497 44.096 37.8937 43.776 37.8937 43.136V12.032C37.8937 10.944 38.3897 10.4 39.3817 10.4H47.8297C52.5657 10.4 55.9737 11.376 58.0537 13.328C60.1657 15.28 61.2217 18.112 61.2217 21.824C61.2217 24.896 60.2297 27.712 58.2457 30.272C57.2537 31.552 55.7977 32.576 53.8777 33.344C51.9577 34.112 49.7177 34.496 47.1577 34.496V43.088C47.1577 43.472 46.5497 43.744 45.3337 43.904C44.1497 44.032 43.1257 44.096 42.2617 44.096ZM47.1577 18.752V26.336H47.7817C48.9017 26.336 49.8457 25.984 50.6137 25.28C51.3817 24.576 51.7657 23.584 51.7657 22.304C51.7657 21.024 51.4937 20.112 50.9497 19.568C50.4377 19.024 49.5097 18.752 48.1657 18.752H47.1577ZM66.066 41.168C64.082 38.96 63.09 35.904 63.09 32C63.09 28.096 64.082 25.04 66.066 22.832C68.082 20.624 70.786 19.52 74.178 19.52C77.57 19.52 80.258 20.624 82.242 22.832C84.226 25.04 85.218 28.096 85.218 32C85.218 35.904 84.226 38.96 82.242 41.168C80.258 43.376 77.57 44.48 74.178 44.48C70.786 44.48 68.082 43.376 66.066 41.168ZM74.178 27.536C72.386 27.536 71.49 29.008 71.49 31.952C71.49 34.896 72.386 36.368 74.178 36.368C76.002 36.368 76.914 34.896 76.914 31.952C76.914 29.008 76.002 27.536 74.178 27.536ZM99.1234 43.952C99.1234 44.176 97.6674 44.288 94.7554 44.288C91.8434 44.224 90.3874 44.096 90.3874 43.904V27.968H89.0914C88.5794 27.968 88.1634 27.664 87.8434 27.056C87.5554 26.416 87.4114 25.632 87.4114 24.704C87.4114 21.248 88.4354 19.52 90.4834 19.52C91.9234 19.52 93.1234 19.968 94.0834 20.864C95.0434 21.728 95.5234 22.72 95.5234 23.84C96.1954 22.528 97.0914 21.488 98.2114 20.72C99.3634 19.92 100.531 19.52 101.715 19.52C103.571 19.52 104.691 20 105.075 20.96C105.171 21.216 105.219 21.6 105.219 22.112C105.219 22.592 105.059 23.472 104.739 24.752C104.451 26.032 104.147 26.96 103.827 27.536C103.507 28.112 103.315 28.4 103.251 28.4C103.187 28.4 102.883 28.288 102.339 28.064C101.827 27.808 101.363 27.68 100.947 27.68C99.7314 27.68 99.1234 28.64 99.1234 30.56V43.952ZM118.683 43.712C118.683 44.096 117.339 44.288 114.651 44.288C111.451 44.16 109.851 43.952 109.851 43.664V26.672H107.403C106.763 26.672 106.443 25.568 106.443 23.36C106.443 22.784 106.491 22.08 106.587 21.248C106.715 20.416 106.955 20 107.307 20H109.851V15.776C109.851 15.136 111.195 14.816 113.883 14.816C116.603 14.816 117.963 15.072 117.963 15.584V18.656L118.011 20H122.091C122.635 20 122.907 21.12 122.907 23.36C122.907 25.6 122.635 26.72 122.091 26.72H118.683V43.712ZM127.186 26.384H124.834C124.354 26.384 124.114 25.328 124.114 23.216C124.114 21.072 124.354 20 124.834 20H127.186V18.944C127.186 15.552 127.89 13.216 129.298 11.936C130.738 10.624 132.738 9.968 135.298 9.968C137.858 9.968 140.114 10.432 142.066 11.36C142.322 11.456 142.45 11.808 142.45 12.416C142.45 12.992 142.178 13.936 141.634 15.248C141.09 16.56 140.626 17.312 140.242 17.504C139.154 16.832 138.034 16.496 136.882 16.496C135.634 16.496 135.01 17.328 135.01 18.992V20H138.994C139.57 20 139.858 21.024 139.858 23.072C139.858 25.312 139.49 26.432 138.754 26.432H135.682V43.424C135.682 43.808 134.258 44 131.41 44C128.594 44 127.186 43.808 127.186 43.424V26.384ZM144.16 41.168C142.176 38.96 141.184 35.904 141.184 32C141.184 28.096 142.176 25.04 144.16 22.832C146.176 20.624 148.88 19.52 152.272 19.52C155.664 19.52 158.352 20.624 160.336 22.832C162.32 25.04 163.312 28.096 163.312 32C163.312 35.904 162.32 38.96 160.336 41.168C158.352 43.376 155.664 44.48 152.272 44.48C148.88 44.48 146.176 43.376 144.16 41.168ZM152.272 27.536C150.48 27.536 149.584 29.008 149.584 31.952C149.584 34.896 150.48 36.368 152.272 36.368C154.096 36.368 155.008 34.896 155.008 31.952C155.008 29.008 154.096 27.536 152.272 27.536ZM175.441 43.616C175.441 43.904 173.809 44.048 170.545 44.048C167.985 44.016 166.705 43.888 166.705 43.664V10.976C166.705 10.496 168.257 10.256 171.361 10.256C174.081 10.352 175.441 10.512 175.441 10.736V43.616ZM188.567 43.712C188.567 43.968 187.095 44.096 184.151 44.096C181.239 44.096 179.783 43.984 179.783 43.76V20.192C179.783 19.968 181.239 19.856 184.151 19.856C187.095 19.856 188.567 19.952 188.567 20.144V43.712ZM188.567 17.312C188.567 17.536 187.095 17.648 184.151 17.648C181.239 17.648 179.783 17.552 179.783 17.36V10.448C179.783 10.128 181.239 9.968 184.151 9.968C187.095 9.968 188.567 10.064 188.567 10.256V17.312ZM194.972 41.168C192.988 38.96 191.996 35.904 191.996 32C191.996 28.096 192.988 25.04 194.972 22.832C196.988 20.624 199.692 19.52 203.084 19.52C206.476 19.52 209.164 20.624 211.148 22.832C213.132 25.04 214.124 28.096 214.124 32C214.124 35.904 213.132 38.96 211.148 41.168C209.164 43.376 206.476 44.48 203.084 44.48C199.692 44.48 196.988 43.376 194.972 41.168ZM203.084 27.536C201.292 27.536 200.396 29.008 200.396 31.952C200.396 34.896 201.292 36.368 203.084 36.368C204.908 36.368 205.82 34.896 205.82 31.952C205.82 29.008 204.908 27.536 203.084 27.536Z" fill="black"/>
<path d="M226.893 44.144C226.893 44.368 225.373 44.48 222.333 44.48C219.325 44.48 217.821 44.384 217.821 44.192V35.552C217.821 35.264 219.325 35.12 222.333 35.12C225.373 35.12 226.893 35.2 226.893 35.36V44.144Z" fill="#FFBA00"/>
<path d="M12.4092 40.88C12.4092 40.992 11.7212 41.048 10.3452 41.048C8.98515 41.048 8.30515 40.976 8.30515 40.832V33.848C8.30515 33.048 8.04115 32.648 7.51315 32.648C7.24115 32.648 6.88115 32.824 6.43315 33.176V40.856C6.43315 41.016 5.74515 41.096 4.36915 41.096C3.00915 41.096 2.32915 41.008 2.32915 40.832V32.984H1.72915C1.20115 32.984 0.937153 32.432 0.937153 31.328C0.937153 30.832 1.03315 30.328 1.22515 29.816C1.48115 29.112 1.89715 28.76 2.47315 28.76C3.04915 28.76 3.60115 28.912 4.12915 29.216C4.67315 29.52 5.00115 29.808 5.11315 30.08C6.10515 29.2 7.20115 28.76 8.40115 28.76C9.61715 28.76 10.5932 29.136 11.3292 29.888C12.1932 29.136 13.2332 28.76 14.4492 28.76C17.0892 28.76 18.4092 30.368 18.4092 33.584V40.88C18.4092 40.992 17.7212 41.048 16.3452 41.048C14.9852 41.048 14.3052 40.976 14.3052 40.832V33.848C14.3052 33.048 14.0412 32.648 13.5132 32.648C13.2252 32.648 12.8572 32.824 12.4092 33.176V40.88ZM19.6112 29.12C19.6112 28.944 20.3392 28.856 21.7952 28.856C23.2672 28.856 24.0272 28.936 24.0752 29.096L25.8032 34.76L27.4592 29.048C27.5232 28.92 28.0192 28.856 28.9472 28.856C31.0752 28.856 32.0912 28.96 31.9952 29.168L26.3552 45.224C26.3392 45.32 25.8992 45.368 25.0352 45.368C24.1872 45.368 23.3952 45.336 22.6592 45.272C21.9232 45.224 21.5712 45.16 21.6032 45.08L23.6912 40.04L19.6112 29.12Z" fill="black"/>
</svg>
